<?xml version="1.0" encoding="UTF-8"?>
<!DOCTYPE svg PUBLIC "-//W3C//DTD SVG 1.1//EN" "http://www.w3.org/Graphics/SVG/1.1/DTD/svg11.dtd">
<svg xmlns="http://www.w3.org/2000/svg" version="1.1" width="259px" height="100px" style="shape-rendering: geometricprecision; text-rendering: geometricprecision; image-rendering: optimizequality; fill-rule: evenodd; clip-rule: evenodd" xmlns:xlink="http://www.w3.org/1999/xlink">
<g><path style="opacity: .676" fill="#101111" d="M 124.5,-0.5 C 129.5,-0.5 134.5,-0.5 139.5,-0.5C 140.93,0.53747 142.597,1.20414 144.5,1.5C 144.5,2.16667 144.833,2.5 145.5,2.5C 146.795,3.48837 148.128,4.48837 149.5,5.5C 149.5,6.16667 149.833,6.5 150.5,6.5C 152.515,9.86905 154.515,13.2024 156.5,16.5C 156.965,22.684 156.299,28.684 154.5,34.5C 152.808,36.2048 151.475,38.2048 150.5,40.5C 149.833,40.5 149.5,40.8333 149.5,41.5C 148.833,41.5 148.5,41.8333 148.5,42.5C 147.833,42.5 147.5,42.8333 147.5,43.5C 146.508,43.3284 145.842,43.6618 145.5,44.5C 144.833,44.5 144.5,44.8333 144.5,45.5C 137.27,48.7503 129.936,49.0836 122.5,46.5C 120.537,45.1798 118.537,43.8465 116.5,42.5C 116.5,41.8333 116.167,41.5 115.5,41.5C 115.5,40.8333 115.167,40.5 114.5,40.5C 114.5,39.8333 114.167,39.5 113.5,39.5C 113.5,38.8333 113.167,38.5 112.5,38.5C 112.068,37.2905 111.401,36.2905 110.5,35.5C 110.34,33.847 109.674,32.5137 108.5,31.5C 106.864,24.5906 107.531,17.9239 110.5,11.5C 111.401,10.7095 112.068,9.70951 112.5,8.5C 113.167,8.5 113.5,8.16667 113.5,7.5C 114.833,6.83333 115.833,5.83333 116.5,4.5C 117.167,4.5 117.5,4.16667 117.5,3.5C 120.032,2.40425 122.365,1.07092 124.5,-0.5 Z M 142.5,5.5 C 139.124,5.04843 135.791,4.38176 132.5,3.5C 130.018,4.06706 127.684,4.73373 125.5,5.5C 124.5,5.5 123.5,5.5 122.5,5.5C 129.167,1.5 135.833,1.5 142.5,5.5 Z M 125.5,5.5 C 131.203,5.37477 136.87,5.7081 142.5,6.5C 142.5,6.83333 142.5,7.16667 142.5,7.5C 139.458,7.73292 136.792,8.73292 134.5,10.5C 133.209,10.2627 132.209,10.596 131.5,11.5C 129.447,11.4021 127.78,12.0687 126.5,13.5C 122.445,16.0853 122.778,18.0853 127.5,19.5C 127.5,20.1667 127.5,20.8333 127.5,21.5C 126.833,21.5 126.5,21.8333 126.5,22.5C 125.094,22.9731 124.427,23.9731 124.5,25.5C 122.833,26.5 121.5,27.8333 120.5,29.5C 119.833,29.5 119.5,29.8333 119.5,30.5C 118.833,30.5 118.5,30.8333 118.5,31.5C 117.833,31.5 117.5,31.8333 117.5,32.5C 116.222,32.2178 115.222,31.5511 114.5,30.5C 113.167,25.8333 113.167,21.1667 114.5,16.5C 115.931,15.2196 116.598,13.5529 116.5,11.5C 119.055,8.7301 122.055,6.7301 125.5,5.5 Z M 143.5,6.5 C 144.492,6.32842 145.158,6.66175 145.5,7.5C 144.18,8.94183 142.514,9.60849 140.5,9.5C 141.167,8.83333 141.833,8.16667 142.5,7.5C 143.167,7.5 143.5,7.16667 143.5,6.5 Z M 146.5,9.5 C 145.659,11.3792 145.325,13.3792 145.5,15.5C 144.833,16.8333 144.167,18.1667 143.5,19.5C 143.507,16.9621 143.841,14.4621 144.5,12C 144.684,10.6244 145.351,9.79106 146.5,9.5 Z M 131.5,11.5 C 132.5,11.5 133.5,11.5 134.5,11.5C 133.22,12.9313 131.553,13.5979 129.5,13.5C 130.167,12.8333 130.833,12.1667 131.5,11.5 Z M 148.5,12.5 C 148.833,13.8333 149.167,13.8333 149.5,12.5C 154.322,18.9417 154.655,25.6084 150.5,32.5C 150.672,33.4916 150.338,34.1583 149.5,34.5C 149.167,33.1667 148.833,33.1667 148.5,34.5C 146.5,35.8333 144.833,37.5 143.5,39.5C 142.508,39.3284 141.842,39.6618 141.5,40.5C 140.209,40.2627 139.209,40.596 138.5,41.5C 134.5,41.5 130.5,41.5 126.5,41.5C 125.833,40.8333 125.167,40.1667 124.5,39.5C 125.906,39.0269 126.573,38.0269 126.5,36.5C 127.5,36.1667 128.167,35.5 128.5,34.5C 129.167,34.5 129.5,34.1667 129.5,33.5C 131.262,32.7377 132.262,31.4044 132.5,29.5C 133.5,29.1667 134.167,28.5 134.5,27.5C 135.167,27.5 135.833,27.5 136.5,27.5C 137.006,29.1054 137.673,29.4387 138.5,28.5C 139.5,28.5 140.5,28.5 141.5,28.5C 141.81,29.7383 142.31,29.7383 143,28.5C 143.49,27.2068 143.657,25.8734 143.5,24.5C 144.913,21.7814 145.58,18.7814 145.5,15.5C 146.29,14.3915 146.79,13.0581 147,11.5C 147.383,12.056 147.883,12.3893 148.5,12.5 Z M 114.5,13.5 C 114.5,14.5 114.5,15.5 114.5,16.5C 111.833,21.1667 111.833,25.8333 114.5,30.5C 114.5,31.5 114.5,32.5 114.5,33.5C 110.571,26.8171 110.571,20.1505 114.5,13.5 Z M 129.5,20.5 C 129.262,22.4044 128.262,23.7377 126.5,24.5C 126.5,23.8333 126.5,23.1667 126.5,22.5C 127.167,22.5 127.5,22.1667 127.5,21.5C 128.167,21.1667 128.833,20.8333 129.5,20.5 Z M 120.5,29.5 C 120.833,29.5 121.167,29.5 121.5,29.5C 120.585,31.7541 119.252,33.7541 117.5,35.5C 117.167,35.5 116.833,35.5 116.5,35.5C 116.557,34.391 116.89,33.391 117.5,32.5C 118.167,32.5 118.5,32.1667 118.5,31.5C 119.167,31.5 119.5,31.1667 119.5,30.5C 120.167,30.5 120.5,30.1667 120.5,29.5 Z M 129.5,31.5 C 129.5,32.1667 129.5,32.8333 129.5,33.5C 128.833,33.5 128.5,33.8333 128.5,34.5C 128.167,34.5 127.833,34.5 127.5,34.5C 127.427,32.9731 128.094,31.9731 129.5,31.5 Z M 124.5,37.5 C 124.5,38.1667 124.5,38.8333 124.5,39.5C 123.5,39.8333 122.833,40.5 122.5,41.5C 121.508,41.6716 120.842,41.3382 120.5,40.5C 121.506,40.0623 121.506,39.3957 120.5,38.5C 121.959,38.5674 123.292,38.2341 124.5,37.5 Z M 141.5,40.5 C 142.167,40.5 142.833,40.5 143.5,40.5C 143.389,41.1174 143.056,41.6174 142.5,42C 135.585,45.4636 128.918,45.297 122.5,41.5C 123.833,41.5 125.167,41.5 126.5,41.5C 130.5,42.8333 134.5,42.8333 138.5,41.5C 139.791,41.7373 140.791,41.404 141.5,40.5 Z"></path></g>
<g><path style="opacity: .01" fill="#070707" d="M 144.5,1.5 C 145.497,0.287488 146.497,0.454154 147.5,2C 146.906,2.46434 146.239,2.63101 145.5,2.5C 144.833,2.5 144.5,2.16667 144.5,1.5 Z"></path></g>
<g><path style="opacity: .008" fill="#000000" d="M 117.5,3.5 C 116.833,3.5 116.5,3.83333 116.5,4.5C 114.025,4.2533 114.025,3.58664 116.5,2.5C 117.107,2.62358 117.44,2.95691 117.5,3.5 Z"></path></g>
<g><path style="opacity: .006" fill="#000000" d="M 142.5,5.5 C 142.5,5.83333 142.5,6.16667 142.5,6.5C 136.87,5.7081 131.203,5.37477 125.5,5.5C 127.684,4.73373 130.018,4.06706 132.5,3.5C 135.791,4.38176 139.124,5.04843 142.5,5.5 Z"></path></g>
<g><path style="opacity: .009" fill="#000000" d="M 149.5,5.5 C 149.56,4.95691 149.893,4.62358 150.5,4.5C 151.773,5.2565 151.773,5.92317 150.5,6.5C 149.833,6.5 149.5,6.16667 149.5,5.5 Z"></path></g>
<g><path style="opacity: .011" fill="#000000" d="M 113.5,7.5 C 112.833,7.5 112.5,7.83333 112.5,8.5C 111.287,7.50289 111.454,6.50289 113,5.5C 113.464,6.09442 113.631,6.76109 113.5,7.5 Z"></path></g>
<g><path style="opacity: .016" fill="#040404" d="M 142.5,7.5 C 141.833,8.16667 141.167,8.83333 140.5,9.5C 139.209,9.26269 138.209,9.59603 137.5,10.5C 136.5,10.5 135.5,10.5 134.5,10.5C 136.792,8.73292 139.458,7.73292 142.5,7.5 Z"></path></g>
<g><path style="opacity: .016" fill="#080808" d="M 110.5,11.5 C 108.108,12.3678 107.941,11.7012 110,9.5C 110.464,10.0944 110.631,10.7611 110.5,11.5 Z"></path></g>
<g><path style="opacity: .857" fill="#101010" d="M 145.5,7.5 C 145.5,8.16667 145.833,8.5 146.5,8.5C 146.5,8.83333 146.5,9.16667 146.5,9.5C 145.351,9.79106 144.684,10.6244 144.5,12C 143.841,14.4621 143.507,16.9621 143.5,19.5C 142.343,22.2727 141.676,25.2727 141.5,28.5C 140.5,28.5 139.5,28.5 138.5,28.5C 138.068,27.2905 137.401,26.2905 136.5,25.5C 136.167,24.1667 135.833,24.1667 135.5,25.5C 134.833,25.5 134.5,25.8333 134.5,26.5C 133.167,27.1667 132.167,28.1667 131.5,29.5C 130.833,29.5 130.5,29.8333 130.5,30.5C 129.833,30.5 129.5,30.8333 129.5,31.5C 128.094,31.9731 127.427,32.9731 127.5,34.5C 126.5,34.8333 125.833,35.5 125.5,36.5C 124.833,36.5 124.5,36.8333 124.5,37.5C 123.292,38.2341 121.959,38.5674 120.5,38.5C 119.833,37.1667 118.833,36.1667 117.5,35.5C 119.252,33.7541 120.585,31.7541 121.5,29.5C 123.167,28.5 124.5,27.1667 125.5,25.5C 126.167,25.5 126.5,25.1667 126.5,24.5C 128.262,23.7377 129.262,22.4044 129.5,20.5C 130.833,20.1667 130.833,19.8333 129.5,19.5C 128.235,18.5207 126.901,17.5207 125.5,16.5C 126.624,15.1408 127.958,14.1408 129.5,13.5C 131.553,13.5979 133.22,12.9313 134.5,11.5C 135.791,11.7373 136.791,11.404 137.5,10.5C 138.791,10.7373 139.791,10.404 140.5,9.5C 142.514,9.60849 144.18,8.94183 145.5,7.5 Z"></path></g>
<g><path style="opacity: .015" fill="#0a0a0a" d="M 146.5,9.5 C 146.833,9.5 147.167,9.5 147.5,9.5C 147.5,10.1667 147.833,10.5 148.5,10.5C 148.5,11.1667 148.5,11.8333 148.5,12.5C 147.883,12.3893 147.383,12.056 147,11.5C 146.79,13.0581 146.29,14.3915 145.5,15.5C 145.325,13.3792 145.659,11.3792 146.5,9.5 Z"></path></g>
<g><path style="opacity: .008" fill="#000000" d="M 115.5,11.5 C 115.833,11.5 116.167,11.5 116.5,11.5C 116.598,13.5529 115.931,15.2196 114.5,16.5C 114.5,15.5 114.5,14.5 114.5,13.5C 115.338,13.1583 115.672,12.4916 115.5,11.5 Z"></path></g>
<g><path style="opacity: .013" fill="#0b0b0b" d="M 131.5,11.5 C 130.833,12.1667 130.167,12.8333 129.5,13.5C 128.5,13.5 127.5,13.5 126.5,13.5C 127.78,12.0687 129.447,11.4021 131.5,11.5 Z"></path></g>
<g><path style="opacity: .013" fill="#000000" d="M 108.5,31.5 C 108.5,32.5 108.5,33.5 108.5,34.5C 106.133,31.32 105.133,27.6533 105.5,23.5C 107.157,11.522 107.491,11.522 106.5,23.5C 106.382,26.4857 107.048,29.1524 108.5,31.5 Z"></path></g>
<g><path style="opacity: .013" fill="#000000" d="M 114.5,16.5 C 113.167,21.1667 113.167,25.8333 114.5,30.5C 111.833,25.8333 111.833,21.1667 114.5,16.5 Z"></path></g>
<g><path style="opacity: .012" fill="#0a0d0d" d="M 145.5,15.5 C 145.58,18.7814 144.913,21.7814 143.5,24.5C 143.5,22.8333 143.5,21.1667 143.5,19.5C 144.167,18.1667 144.833,16.8333 145.5,15.5 Z"></path></g>
<g><path style="opacity: .021" fill="#000000" d="M 127.5,19.5 C 128.167,19.5 128.833,19.5 129.5,19.5C 129.5,19.8333 129.5,20.1667 129.5,20.5C 128.833,20.8333 128.167,21.1667 127.5,21.5C 127.5,20.8333 127.5,20.1667 127.5,19.5 Z"></path></g>
<g><path style="opacity: .01" fill="#050808" d="M 156.5,16.5 C 156.413,13.4017 156.913,13.0684 158,15.5C 159.921,20.5161 159.921,25.5161 158,30.5C 157.438,28.1339 157.604,25.8006 158.5,23.5C 158.071,20.9712 157.404,18.6379 156.5,16.5 Z"></path></g>
<g><path style="opacity: .014" fill="#000000" d="M 126.5,22.5 C 126.5,23.1667 126.5,23.8333 126.5,24.5C 125.833,24.5 125.5,24.8333 125.5,25.5C 125.167,25.5 124.833,25.5 124.5,25.5C 124.427,23.9731 125.094,22.9731 126.5,22.5 Z"></path></g>
<g><path style="opacity: .021" fill="#000000" d="M 135.5,25.5 C 135.833,25.5 136.167,25.5 136.5,25.5C 136.5,26.1667 136.5,26.8333 136.5,27.5C 135.833,27.5 135.167,27.5 134.5,27.5C 134.5,27.1667 134.5,26.8333 134.5,26.5C 135.167,26.5 135.5,26.1667 135.5,25.5 Z"></path></g>
<g><path style="opacity: .013" fill="#000000" d="M 131.5,29.5 C 131.833,29.5 132.167,29.5 132.5,29.5C 132.262,31.4044 131.262,32.7377 129.5,33.5C 129.5,32.8333 129.5,32.1667 129.5,31.5C 130.167,31.5 130.5,31.1667 130.5,30.5C 131.167,30.5 131.5,30.1667 131.5,29.5 Z"></path></g>
<g><path style="opacity: .01" fill="#000000" d="M 114.5,30.5 C 115.222,31.5511 116.222,32.2178 117.5,32.5C 116.89,33.391 116.557,34.391 116.5,35.5C 116.167,35.5 115.833,35.5 115.5,35.5C 115.672,34.5084 115.338,33.8417 114.5,33.5C 114.5,32.5 114.5,31.5 114.5,30.5 Z"></path></g>
<g><path style="opacity: .006" fill="#070f0f" d="M 154.5,34.5 C 156.892,33.6322 157.059,34.2988 155,36.5C 154.536,35.9056 154.369,35.2389 154.5,34.5 Z"></path></g>
<g><path style="opacity: .016" fill="#080808" d="M 108.5,34.5 C 109.167,34.8333 109.833,35.1667 110.5,35.5C 109.699,37.7929 109.032,37.4596 108.5,34.5 Z"></path></g>
<g><path style="opacity: .013" fill="#000000" d="M 125.5,36.5 C 125.833,36.5 126.167,36.5 126.5,36.5C 126.573,38.0269 125.906,39.0269 124.5,39.5C 124.5,38.8333 124.5,38.1667 124.5,37.5C 125.167,37.5 125.5,37.1667 125.5,36.5 Z"></path></g>
<g><path style="opacity: .031" fill="#0f0f0f" d="M 148.5,34.5 C 148.5,35.1667 148.5,35.8333 148.5,36.5C 147.833,36.5 147.5,36.8333 147.5,37.5C 146.833,37.5 146.5,37.8333 146.5,38.5C 145.833,38.5 145.5,38.8333 145.5,39.5C 144.833,39.5 144.167,39.5 143.5,39.5C 144.833,37.5 146.5,35.8333 148.5,34.5 Z"></path></g>
<g><path style="opacity: .009" fill="#000000" d="M 112.5,38.5 C 113.167,38.5 113.5,38.8333 113.5,39.5C 114.167,39.5 114.5,39.8333 114.5,40.5C 115.167,40.5 115.5,40.8333 115.5,41.5C 116.167,41.5 116.5,41.8333 116.5,42.5C 114.336,43.1183 112.67,42.1183 111.5,39.5C 111.624,38.8933 111.957,38.56 112.5,38.5 Z"></path></g>
<g><path style="opacity: .005" fill="#000000" d="M 124.5,39.5 C 125.167,40.1667 125.833,40.8333 126.5,41.5C 125.167,41.5 123.833,41.5 122.5,41.5C 122.833,40.5 123.5,39.8333 124.5,39.5 Z"></path></g>
<g><path style="opacity: .012" fill="#000000" d="M 150.5,40.5 C 151.833,41.1667 151.833,41.1667 150.5,40.5 Z"></path></g>
<g><path style="opacity: .016" fill="#000000" d="M 149.5,41.5 C 149.833,41.5 150.167,41.5 150.5,41.5C 150.315,42.1701 149.981,42.1701 149.5,41.5 Z"></path></g>
<g><path style="opacity: .024" fill="#000000" d="M 148.5,42.5 C 148.833,42.5 149.167,42.5 149.5,42.5C 149.315,43.1701 148.981,43.1701 148.5,42.5 Z"></path></g>
<g><path style="opacity: .024" fill="#000000" d="M 147.5,43.5 C 147.833,43.5 148.167,43.5 148.5,43.5C 148.315,44.1701 147.981,44.1701 147.5,43.5 Z"></path></g>
<g><path style="opacity: .014" fill="#070707" d="M 145.5,44.5 C 146.167,44.5 146.833,44.5 147.5,44.5C 146.779,46.3818 145.779,46.7152 144.5,45.5C 145.167,45.5 145.5,45.1667 145.5,44.5 Z"></path></g>
<g><path style="opacity: .018" fill="#000707" d="M 122.5,46.5 C 123.167,47.1667 123.833,47.8333 124.5,48.5C 122.897,48.6882 121.563,48.1882 120.5,47C 121.094,46.5357 121.761,46.369 122.5,46.5 Z"></path></g>
<g><path style="opacity: .016" fill="#000000" d="M 124.5,48.5 C 129.838,49.6605 135.172,49.8271 140.5,49C 134.959,51.1377 129.626,50.971 124.5,48.5 Z"></path></g>
<g><path style="opacity: .006" fill="#000000" d="M 118.5,65.5 C 115.615,65.1936 112.948,65.5269 110.5,66.5C 108.621,66.6068 108.288,66.1068 109.5,65C 112.732,62.9336 115.732,63.1003 118.5,65.5 Z"></path></g>
<g><path style="opacity: .006" fill="#000000" d="M 227.5,65.5 C 224.615,65.1936 221.948,65.5269 219.5,66.5C 217.621,66.6068 217.288,66.1068 218.5,65C 221.732,62.9336 224.732,63.1003 227.5,65.5 Z"></path></g>
<g><path style="opacity: .011" fill="#000000" d="M -0.5,65.5 C -0.5,65.1667 -0.5,64.8333 -0.5,64.5C 6.16667,64.8333 6.16667,65.1667 -0.5,65.5 Z"></path></g>
<g><path style="opacity: .011" fill="#000000" d="M 41.5,65.5 C 45.6463,64.353 49.9796,64.1864 54.5,65C 50.1794,65.499 45.8461,65.6657 41.5,65.5 Z"></path></g>
<g><path style="opacity: .011" fill="#000000" d="M 80.5,65.5 C 75.1563,65.666 69.8229,65.4994 64.5,65C 70.0164,64.1826 75.3497,64.3493 80.5,65.5 Z"></path></g>
<g><path style="opacity: .01" fill="#000000" d="M 139.5,65.5 C 137.473,65.6621 135.473,65.4955 133.5,65C 135.712,64.2109 137.712,64.3775 139.5,65.5 Z"></path></g>
<g><path style="opacity: .008" fill="#000000" d="M 143.5,65.5 C 145.288,64.3775 147.288,64.2109 149.5,65C 147.527,65.4955 145.527,65.6621 143.5,65.5 Z"></path></g>
<g><path style="opacity: .011" fill="#000000" d="M 258.5,64.5 C 258.5,64.8333 258.5,65.1667 258.5,65.5C 251.833,65.1667 251.833,64.8333 258.5,64.5 Z"></path></g>
<g><path style="opacity: .004" fill="#000000" d="M 30.5,66.5 C 29.8333,65.1667 29.8333,65.1667 30.5,66.5 Z"></path></g>
<g><path style="opacity: .004" fill="#000000" d="M 40.5,66.5 C 39.8333,65.1667 39.8333,65.1667 40.5,66.5 Z"></path></g>
<g><path style="opacity: .004" fill="#000000" d="M 55.5,65.5 C 56.8333,66.1667 56.8333,66.1667 55.5,65.5 Z"></path></g>
<g><path style="opacity: .004" fill="#000000" d="M 80.5,65.5 C 81.8333,66.1667 81.8333,66.1667 80.5,65.5 Z"></path></g>
<g><path style="opacity: .01" fill="#000000" d="M 118.5,65.5 C 121.051,65.6682 121.718,66.6682 120.5,68.5C 120.5,67.8333 120.167,67.5 119.5,67.5C 119.167,66.8333 118.833,66.1667 118.5,65.5 Z"></path></g>
<g><path style="opacity: .004" fill="#000000" d="M 139.5,65.5 C 140.833,66.1667 140.833,66.1667 139.5,65.5 Z"></path></g>
<g><path style="opacity: .004" fill="#000000" d="M 143.5,65.5 C 143.5,65.8333 143.5,66.1667 143.5,66.5C 142.83,66.0187 142.83,65.6853 143.5,65.5 Z"></path></g>
<g><path style="opacity: .007" fill="#000000" d="M 227.5,65.5 C 230.323,66.1476 231.823,67.8142 232,70.5C 231.617,69.944 231.117,69.6107 230.5,69.5C 230.5,68.8333 230.167,68.5 229.5,68.5C 229.5,67.8333 229.167,67.5 228.5,67.5C 228.167,66.8333 227.833,66.1667 227.5,65.5 Z"></path></g>
<g><path style="opacity: .877" fill="#101111" d="M -0.5,66.5 C 1.5,66.5 3.5,66.5 5.5,66.5C 5.5,75.5 5.5,84.5 5.5,93.5C 8.16667,93.5 10.8333,93.5 13.5,93.5C 13.5,95.5 13.5,97.5 13.5,99.5C 8.83333,99.5 4.16667,99.5 -0.5,99.5C -0.5,88.5 -0.5,77.5 -0.5,66.5 Z"></path></g>
<g><path style="opacity: .026" fill="#000000" d="M 6.5,66.5 C 7.49272,74.6499 7.82605,82.9832 7.5,91.5C 9.5273,91.3379 11.5273,91.5045 13.5,92C 11.1902,92.4966 8.85684,92.6633 6.5,92.5C 6.5,83.8333 6.5,75.1667 6.5,66.5 Z"></path></g>
<g><path style="opacity: .802" fill="#101111" d="M 29.5,66.5 C 29.5,77.5 29.5,88.5 29.5,99.5C 27.5,99.5 25.5,99.5 23.5,99.5C 23.5,88.5 23.5,77.5 23.5,66.5C 25.5,66.5 27.5,66.5 29.5,66.5 Z"></path></g>
<g><path style="opacity: .019" fill="#000000" d="M 30.5,66.5 C 31.4946,77.3206 31.8279,88.3206 31.5,99.5C 31.1667,99.5 30.8333,99.5 30.5,99.5C 30.5,88.5 30.5,77.5 30.5,66.5 Z"></path></g>
<g><path style="opacity: .027" fill="#000101" d="M 39.5,66.5 C 39.5,77.5 39.5,88.5 39.5,99.5C 39.1667,99.5 38.8333,99.5 38.5,99.5C 38.1721,88.3206 38.5054,77.3206 39.5,66.5 Z"></path></g>
<g><path style="opacity: .719" fill="#101010" d="M 40.5,66.5 C 45.5,66.5 50.5,66.5 55.5,66.5C 55.5,68.5 55.5,70.5 55.5,72.5C 52.4816,72.3354 49.4816,72.502 46.5,73C 47.1094,74.9483 47.776,76.7816 48.5,78.5C 48.8333,78.5 49.1667,78.5 49.5,78.5C 51.099,78.2322 52.4324,78.5655 53.5,79.5C 45.5,79.8333 45.5,80.1667 53.5,80.5C 53.5,82.5 53.5,84.5 53.5,86.5C 51.1432,86.3367 48.8098,86.5034 46.5,87C 47.4637,91.0659 47.797,95.2325 47.5,99.5C 45.1667,99.5 42.8333,99.5 40.5,99.5C 40.5,88.5 40.5,77.5 40.5,66.5 Z"></path></g>
<g><path style="opacity: .016" fill="#000000" d="M 61.5,66.5 C 62.6225,68.2884 62.7891,70.2884 62,72.5C 61.5045,70.5273 61.3379,68.5273 61.5,66.5 Z"></path></g>
<g><path style="opacity: .793" fill="#101111" d="M 80.5,66.5 C 80.5,68.5 80.5,70.5 80.5,72.5C 78.8333,72.5 77.1667,72.5 75.5,72.5C 75.5,81.5 75.5,90.5 75.5,99.5C 73.5,99.5 71.5,99.5 69.5,99.5C 69.5,90.5 69.5,81.5 69.5,72.5C 67.5,72.5 65.5,72.5 63.5,72.5C 63.5,70.5 63.5,68.5 63.5,66.5C 69.1667,66.5 74.8333,66.5 80.5,66.5 Z"></path></g>
<g><path style="opacity: .78" fill="#101111" d="M 110.5,66.5 C 113.57,66.3677 116.57,66.701 119.5,67.5C 120.167,67.5 120.5,67.8333 120.5,68.5C 120.932,69.7095 121.599,70.7095 122.5,71.5C 122.5,73.8333 122.5,76.1667 122.5,78.5C 120.5,78.5 118.5,78.5 116.5,78.5C 116.5,76.5 116.5,74.5 116.5,72.5C 115.167,72.5 113.833,72.5 112.5,72.5C 112.175,79.6866 112.509,86.6866 113.5,93.5C 114.167,94.8333 114.833,94.8333 115.5,93.5C 116.468,91.3926 116.802,89.0593 116.5,86.5C 118.5,86.5 120.5,86.5 122.5,86.5C 122.658,89.9023 122.324,93.2356 121.5,96.5C 120.167,97.1667 119.167,98.1667 118.5,99.5C 115.5,99.5 112.5,99.5 109.5,99.5C 109.5,98.8333 109.167,98.5 108.5,98.5C 108.5,97.8333 108.167,97.5 107.5,97.5C 106.556,88.5535 106.222,79.5535 106.5,70.5C 108.167,69.5 109.5,68.1667 110.5,66.5 Z"></path></g>
<g><path style="opacity: .015" fill="#000000" d="M 131.5,99.5 C 131.167,99.5 130.833,99.5 130.5,99.5C 130.833,55.5 131.167,55.5 131.5,99.5 Z"></path></g>
<g><path style="opacity: .833" fill="#111212" d="M 139.5,66.5 C 139.5,71.1667 139.5,75.8333 139.5,80.5C 140.833,80.5 142.167,80.5 143.5,80.5C 143.5,75.8333 143.5,71.1667 143.5,66.5C 145.833,66.5 148.167,66.5 150.5,66.5C 150.5,77.5 150.5,88.5 150.5,99.5C 148.167,99.5 145.833,99.5 143.5,99.5C 143.5,95.1667 143.5,90.8333 143.5,86.5C 142.167,86.5 140.833,86.5 139.5,86.5C 139.5,90.8333 139.5,95.1667 139.5,99.5C 137.5,99.5 135.5,99.5 133.5,99.5C 133.5,88.5 133.5,77.5 133.5,66.5C 135.5,66.5 137.5,66.5 139.5,66.5 Z"></path></g>
<g><path style="opacity: .017" fill="#000000" d="M 142.5,66.5 C 142.826,70.8839 142.492,75.2172 141.5,79.5C 140.34,75.5411 140.173,71.5411 141,67.5C 141.383,66.944 141.883,66.6107 142.5,66.5 Z"></path></g>
<g><path style="opacity: .811" fill="#101111" d="M 168.5,93.5 C 169.167,94.8333 169.833,94.8333 170.5,93.5C 171.493,84.6822 171.827,75.6822 171.5,66.5C 173.5,66.5 175.5,66.5 177.5,66.5C 177.5,75.8333 177.5,85.1667 177.5,94.5C 176.662,94.8417 176.328,95.5084 176.5,96.5C 175.167,97.1667 174.167,98.1667 173.5,99.5C 170.5,99.5 167.5,99.5 164.5,99.5C 164.5,98.8333 164.167,98.5 163.5,98.5C 163.013,97.5266 162.513,96.5266 162,95.5C 161.5,85.8391 161.334,76.1724 161.5,66.5C 163.5,66.5 165.5,66.5 167.5,66.5C 167.173,75.6822 167.507,84.6822 168.5,93.5 Z"></path></g>
<g><path style="opacity: .016" fill="#000000" d="M 170.5,68.5 C 169.833,68.5 169.167,68.5 168.5,68.5C 169.167,65.8333 169.833,65.8333 170.5,68.5 Z"></path></g>
<g><path style="opacity: .794" fill="#101111" d="M 203.5,82.5 C 202.167,83.1667 202.167,83.8333 203.5,84.5C 204.113,89.5346 204.779,94.5346 205.5,99.5C 203.167,99.5 200.833,99.5 198.5,99.5C 198.666,95.4862 198.499,91.4862 198,87.5C 196.989,86.6634 195.822,86.33 194.5,86.5C 194.5,90.8333 194.5,95.1667 194.5,99.5C 192.5,99.5 190.5,99.5 188.5,99.5C 188.5,88.5 188.5,77.5 188.5,66.5C 201.917,64.2454 206.917,69.5787 203.5,82.5 Z M 197.5,73.5 C 198.468,75.6074 198.802,77.9407 198.5,80.5C 197.178,80.33 196.011,80.6634 195,81.5C 194.502,78.5184 194.335,75.5184 194.5,72.5C 195.791,72.2627 196.791,72.596 197.5,73.5 Z"></path></g>
<g><path style="opacity: .81" fill="#101111" d="M 219.5,66.5 C 222.57,66.3677 225.57,66.701 228.5,67.5C 229.167,67.5 229.5,67.8333 229.5,68.5C 230.167,68.5 230.5,68.8333 230.5,69.5C 231.299,72.4299 231.632,75.4299 231.5,78.5C 229.5,78.5 227.5,78.5 225.5,78.5C 225.5,76.5 225.5,74.5 225.5,72.5C 224.167,72.5 222.833,72.5 221.5,72.5C 221.175,79.6866 221.509,86.6866 222.5,93.5C 223.189,94.7736 224.023,94.7736 225,93.5C 225.497,91.1902 225.663,88.8568 225.5,86.5C 227.5,86.5 229.5,86.5 231.5,86.5C 231.81,90.6995 231.143,94.6995 229.5,98.5C 228.508,98.3284 227.842,98.6618 227.5,99.5C 224.5,99.5 221.5,99.5 218.5,99.5C 218.5,98.8333 218.167,98.5 217.5,98.5C 217.068,97.2905 216.401,96.2905 215.5,95.5C 215.5,87.1667 215.5,78.8333 215.5,70.5C 216.167,70.5 216.5,70.1667 216.5,69.5C 217.833,68.8333 218.833,67.8333 219.5,66.5 Z"></path></g>
<g><path style="opacity: .019" fill="#000000" d="M 241.5,99.5 C 241.167,99.5 240.833,99.5 240.5,99.5C 240.833,55.5 241.167,55.5 241.5,99.5 Z"></path></g>
<g><path style="opacity: .856" fill="#0f1111" d="M 248.5,66.5 C 248.5,71.1667 248.5,75.8333 248.5,80.5C 249.833,80.5 251.167,80.5 252.5,80.5C 252.5,75.8333 252.5,71.1667 252.5,66.5C 254.5,66.5 256.5,66.5 258.5,66.5C 258.5,77.5 258.5,88.5 258.5,99.5C 256.5,99.5 254.5,99.5 252.5,99.5C 252.5,95.1667 252.5,90.8333 252.5,86.5C 251.167,86.5 249.833,86.5 248.5,86.5C 248.5,90.8333 248.5,95.1667 248.5,99.5C 246.5,99.5 244.5,99.5 242.5,99.5C 242.5,88.5 242.5,77.5 242.5,66.5C 244.5,66.5 246.5,66.5 248.5,66.5 Z M 248.5,66.5 C 248.833,66.5 249.167,66.5 249.5,66.5C 250.167,83.8333 250.833,83.8333 251.5,66.5C 251.833,66.5 252.167,66.5 252.5,66.5C 252.5,71.1667 252.5,75.8333 252.5,80.5C 251.167,80.5 249.833,80.5 248.5,80.5C 248.5,75.8333 248.5,71.1667 248.5,66.5 Z"></path></g>
<g><path style="opacity: .018" fill="#0d0d0d" d="M 249.5,66.5 C 250.167,66.5 250.833,66.5 251.5,66.5C 250.833,83.8333 250.167,83.8333 249.5,66.5 Z"></path></g>
<g><path style="opacity: .008" fill="#000000" d="M 22.5,99.5 C 22.1667,99.5 21.8333,99.5 21.5,99.5C 21.8333,56.8333 22.1667,56.8333 22.5,99.5 Z"></path></g>
<g><path style="opacity: .007" fill="#000000" d="M 56.5,72.5 C 56.3398,70.8008 56.5065,69.1341 57,67.5C 57.7796,69.3869 57.6129,71.0536 56.5,72.5 Z"></path></g>
<g><path style="opacity: .01" fill="#000000" d="M 81.5,72.5 C 81.3398,70.8008 81.5065,69.1341 82,67.5C 82.7796,69.3869 82.6129,71.0536 81.5,72.5 Z"></path></g>
<g><path style="opacity: .004" fill="#000000" d="M 151.5,67.5 C 152.659,77.6584 152.825,87.9917 152,98.5C 151.5,88.172 151.334,77.8387 151.5,67.5 Z"></path></g>
<g><path style="opacity: .004" fill="#000000" d="M 187.5,99.5 C 187.167,99.5 186.833,99.5 186.5,99.5C 185.192,88.8943 185.192,78.2277 186.5,67.5C 187.499,78.1459 187.832,88.8126 187.5,99.5 Z"></path></g>
<g><path style="opacity: .009" fill="#000908" d="M 216.5,69.5 C 215.833,69.5 215.5,69.8333 215.5,70.5C 215.167,70.5 214.833,70.5 214.5,70.5C 215.032,67.5404 215.699,67.2071 216.5,69.5 Z"></path></g>
<g><path style="opacity: .008" fill="#000000" d="M 106.5,70.5 C 105.833,71.1667 105.167,71.8333 104.5,72.5C 104.312,70.8967 104.812,69.5634 106,68.5C 106.464,69.0944 106.631,69.7611 106.5,70.5 Z"></path></g>
<g><path style="opacity: .031" fill="#00201f" d="M 168.5,68.5 C 169.167,68.5 169.833,68.5 170.5,68.5C 170.5,68.8333 170.5,69.1667 170.5,69.5C 169.833,76.5 169.167,83.5 168.5,90.5C 168.5,83.1667 168.5,75.8333 168.5,68.5 Z"></path></g>
<g><path style="opacity: .022" fill="#000404" d="M 123.5,78.5 C 123.802,75.9407 123.468,73.6074 122.5,71.5C 122.393,69.6214 122.893,69.2881 124,70.5C 124.801,73.367 124.634,76.0336 123.5,78.5 Z"></path></g>
<g><path style="opacity: .027" fill="#030303" d="M 170.5,69.5 C 170.5,77.5 170.5,85.5 170.5,93.5C 169.833,93.5 169.167,93.5 168.5,93.5C 168.5,92.5 168.5,91.5 168.5,90.5C 169.167,83.5 169.833,76.5 170.5,69.5 Z"></path></g>
<g><path style="opacity: .01" fill="#000000" d="M 205.5,81.5 C 205.335,77.8183 205.501,74.1516 206,70.5C 208.014,74.3589 207.848,78.0256 205.5,81.5 Z"></path></g>
<g><path style="opacity: .004" fill="#000000" d="M 55.5,72.5 C 55.8333,72.5 56.1667,72.5 56.5,72.5C 56.3147,73.1701 55.9813,73.1701 55.5,72.5 Z"></path></g>
<g><path style="opacity: .004" fill="#000000" d="M 80.5,72.5 C 80.8333,72.5 81.1667,72.5 81.5,72.5C 81.3147,73.1701 80.9813,73.1701 80.5,72.5 Z"></path></g>
<g><path style="opacity: .004" fill="#000000" d="M 104.5,72.5 C 104.264,80.5417 104.597,88.5417 105.5,96.5C 104.778,96.0825 104.278,95.4158 104,94.5C 103.178,86.9882 103.345,79.6549 104.5,72.5 Z"></path></g>
<g><path style="opacity: .009" fill="#010202" d="M 214.5,70.5 C 214.174,79.0168 214.507,87.3501 215.5,95.5C 215.631,96.2389 215.464,96.9056 215,97.5C 213.956,96.3774 213.29,95.0441 213,93.5C 212.333,86.8333 212.333,80.1667 213,73.5C 213.232,72.2625 213.732,71.2625 214.5,70.5 Z"></path></g>
<g><path style="opacity: .005" fill="#000000" d="M 49.5,78.5 C 49.1667,78.5 48.8333,78.5 48.5,78.5C 48.5,76.8333 48.5,75.1667 48.5,73.5C 50.604,73.2011 52.604,73.5344 54.5,74.5C 52.9547,75.4519 51.288,75.7852 49.5,75.5C 49.5,76.5 49.5,77.5 49.5,78.5 Z"></path></g>
<g><path style="opacity: .01" fill="#000000" d="M 68.5,99.5 C 68.1667,99.5 67.8333,99.5 67.5,99.5C 67.5,91.5 67.5,83.5 67.5,75.5C 66.325,75.719 65.325,75.3857 64.5,74.5C 65.6888,73.5713 67.0222,73.238 68.5,73.5C 68.5,82.1667 68.5,90.8333 68.5,99.5 Z"></path></g>
<g><path style="opacity: .004" fill="#030505" d="M 80.5,73.5 C 80.1788,75.0481 79.1788,75.7148 77.5,75.5C 77.5,83.5 77.5,91.5 77.5,99.5C 77.1667,99.5 76.8333,99.5 76.5,99.5C 76.5,90.8333 76.5,82.1667 76.5,73.5C 77.8333,73.5 79.1667,73.5 80.5,73.5 Z"></path></g>
<g><path style="opacity: .01" fill="#010101" d="M 115.5,93.5 C 114.833,93.5 114.167,93.5 113.5,93.5C 113.17,86.8002 113.503,80.1335 114.5,73.5C 115.307,80.0777 115.64,86.7443 115.5,93.5 Z"></path></g>
<g><path style="opacity: .013" fill="#050505" d="M 197.5,73.5 C 197.799,75.604 197.466,77.604 196.5,79.5C 196.167,79.3333 195.833,79.1667 195.5,79C 196.109,77.0517 196.776,75.2184 197.5,73.5 Z"></path></g>
<g><path style="opacity: .018" fill="#020202" d="M 222.5,93.5 C 222.17,86.8002 222.503,80.1335 223.5,73.5C 223.369,78.9551 223.703,84.4551 224.5,90C 224.613,91.6991 223.947,92.8658 222.5,93.5 Z"></path></g>
<g><path style="opacity: .008" fill="#000000" d="M 122.5,78.5 C 122.833,78.5 123.167,78.5 123.5,78.5C 123.315,79.1701 122.981,79.1701 122.5,78.5 Z"></path></g>
<g><path style="opacity: .004" fill="#000000" d="M 53.5,79.5 C 54.8333,80.1667 54.8333,80.1667 53.5,79.5 Z"></path></g>
<g><path style="opacity: .023" fill="#000707" d="M 122.5,79.5 C 120.712,80.6225 118.712,80.7891 116.5,80C 118.473,79.5045 120.473,79.3379 122.5,79.5 Z"></path></g>
<g><path style="opacity: .022" fill="#000000" d="M 225.5,80.5 C 227.288,79.3775 229.288,79.2109 231.5,80C 229.527,80.4955 227.527,80.6621 225.5,80.5 Z"></path></g>
<g><path style="opacity: .007" fill="#000000" d="M 54.5,86.5 C 54.2148,84.712 54.5481,83.0453 55.5,81.5C 56.8943,83.5819 56.561,85.2486 54.5,86.5 Z"></path></g>
<g><path style="opacity: .017" fill="#000000" d="M 205.5,81.5 C 205.443,82.609 205.11,83.609 204.5,84.5C 204.167,84.5 203.833,84.5 203.5,84.5C 203.5,83.8333 203.5,83.1667 203.5,82.5C 204.167,82.1667 204.833,81.8333 205.5,81.5 Z"></path></g>
<g><path style="opacity: .024" fill="#000000" d="M 204.5,84.5 C 205.167,84.5 205.5,84.8333 205.5,85.5C 205.167,85.1667 204.833,84.8333 204.5,84.5 Z"></path></g>
<g><path style="opacity: .009" fill="#000000" d="M 205.5,85.5 C 206.268,86.2625 206.768,87.2625 207,88.5C 207.499,92.1516 207.665,95.8183 207.5,99.5C 207.167,99.5 206.833,99.5 206.5,99.5C 205.771,94.8696 205.437,90.2029 205.5,85.5 Z"></path></g>
<g><path style="opacity: .004" fill="#000000" d="M 231.5,85.5 C 232.833,86.1667 232.833,86.1667 231.5,85.5 Z"></path></g>
<g><path style="opacity: .004" fill="#000000" d="M 53.5,86.5 C 53.8333,86.5 54.1667,86.5 54.5,86.5C 54.3147,87.1701 53.9813,87.1701 53.5,86.5 Z"></path></g>
<g><path style="opacity: .007" fill="#000000" d="M 53.5,87.5 C 52.4324,88.4345 51.099,88.7678 49.5,88.5C 49.5,92.1667 49.5,95.8333 49.5,99.5C 49.1667,99.5 48.8333,99.5 48.5,99.5C 48.5,95.5 48.5,91.5 48.5,87.5C 50.1667,87.5 51.8333,87.5 53.5,87.5 Z"></path></g>
<g><path style="opacity: .017" fill="#000000" d="M 142.5,99.5 C 141.833,99.5 141.167,99.5 140.5,99.5C 141.167,83.5 141.833,83.5 142.5,99.5 Z"></path></g>
<g><path style="opacity: .007" fill="#000000" d="M 232.5,95.5 C 232.336,92.8127 232.503,90.146 233,87.5C 233.801,90.367 233.634,93.0336 232.5,95.5 Z"></path></g>
<g><path style="opacity: .019" fill="#0d0d0d" d="M 251.5,99.5 C 250.833,99.5 250.167,99.5 249.5,99.5C 250.167,83.5 250.833,83.5 251.5,99.5 Z"></path></g>
<g><path style="opacity: .012" fill="#000000" d="M 197.5,99.5 C 197.167,99.5 196.833,99.5 196.5,99.5C 196.833,84.8333 197.167,84.8333 197.5,99.5 Z"></path></g>
<g><path style="opacity: .022" fill="#111212" d="M 178.5,94.5 C 178.334,85.1607 178.5,75.8274 179,66.5C 179.824,76.0092 179.658,85.3425 178.5,94.5 Z"></path></g>
<g><path style="opacity: .023" fill="#000000" d="M 15.5,99.5 C 15.1667,99.5 14.8333,99.5 14.5,99.5C 14.8333,92.8333 15.1667,92.8333 15.5,99.5 Z"></path></g>
<g><path style="opacity: .024" fill="#000000" d="M 177.5,94.5 C 177.833,94.5 178.167,94.5 178.5,94.5C 178.672,95.4916 178.338,96.1583 177.5,96.5C 177.5,95.8333 177.5,95.1667 177.5,94.5 Z"></path></g>
<g><path style="opacity: .008" fill="#000000" d="M 232.5,95.5 C 232.672,96.4916 232.338,97.1583 231.5,97.5C 231.328,96.5084 231.662,95.8417 232.5,95.5 Z"></path></g>
<g><path style="opacity: .01" fill="#000000" d="M 105.5,96.5 C 106.167,96.8333 106.833,97.1667 107.5,97.5C 107.5,97.8333 107.5,98.1667 107.5,98.5C 106.167,98.5 105.5,97.8333 105.5,96.5 Z"></path></g>
<g><path style="opacity: .01" fill="#080808" d="M 121.5,98.5 C 121.5,97.8333 121.5,97.1667 121.5,96.5C 124.187,95.9394 124.187,96.6061 121.5,98.5 Z"></path></g>
<g><path style="opacity: .01" fill="#000000" d="M 176.5,96.5 C 176.833,96.5 177.167,96.5 177.5,96.5C 177.672,97.4916 177.338,98.1583 176.5,98.5C 176.5,97.8333 176.5,97.1667 176.5,96.5 Z"></path></g>
<g><path style="opacity: .012" fill="#000000" d="M 231.5,97.5 C 230.833,98.1667 230.833,98.1667 231.5,97.5 Z"></path></g>
<g><path style="opacity: .012" fill="#000000" d="M 107.5,98.5 C 107.833,98.5 108.167,98.5 108.5,98.5C 108.5,98.8333 108.5,99.1667 108.5,99.5C 108.167,99.1667 107.833,98.8333 107.5,98.5 Z"></path></g>
<g><path style="opacity: .012" fill="#000000" d="M 121.5,98.5 C 121.5,98.8333 121.5,99.1667 121.5,99.5C 120.83,99.0187 120.83,98.6853 121.5,98.5 Z"></path></g>
<g><path style="opacity: .008" fill="#000000" d="M 163.5,98.5 C 163.5,98.8333 163.5,99.1667 163.5,99.5C 162.83,99.0187 162.83,98.6853 163.5,98.5 Z"></path></g>
<g><path style="opacity: .008" fill="#000000" d="M 176.5,98.5 C 176.5,98.8333 176.5,99.1667 176.5,99.5C 175.83,99.0187 175.83,98.6853 176.5,98.5 Z"></path></g>
<g><path style="opacity: .012" fill="#000000" d="M 217.5,98.5 C 217.5,98.8333 217.5,99.1667 217.5,99.5C 216.83,99.0187 216.83,98.6853 217.5,98.5 Z"></path></g>
<g><path style="opacity: .012" fill="#000000" d="M 229.5,98.5 C 229.833,98.5 230.167,98.5 230.5,98.5C 230.5,98.8333 230.5,99.1667 230.5,99.5C 230.167,99.1667 229.833,98.8333 229.5,98.5 Z"></path></g>
</svg>
